
<?xml version="1.0" encoding="iso-8859-1"?>
<!-- Uploaded to: SVG Repo, www.svgrepo.com, Generator: SVG Repo Mixer Tools -->
<svg height="800px" width="800px" version="1.1" id="Layer_1" xmlns="http://www.w3.org/2000/svg" xmlns:xlink="http://www.w3.org/1999/xlink" 
	 viewBox="0 0 512.004 512.004" xml:space="preserve">
<circle style="fill:#ADA323;" cx="256.002" cy="256.002" r="256.002"/>
<circle style="fill:#BC153A;" cx="256.002" cy="256.002" r="216.056"/>
<circle style="fill:#CC1F3C;" cx="256.002" cy="256.002" r="201.462"/>
<g style="opacity:0.3;">
	<circle style="fill:#FFFFFF;" cx="373.417" cy="99.884" r="40.519"/>
	<circle style="fill:#FFFFFF;" cx="438.12" cy="166.605" r="20.262"/>
</g>
<g style="opacity:0.2;">
	<path d="M44.109,298.381C24.077,179.324,94.257,81.704,160.515,18.477C66.436,56.333,0,148.377,0,255.998
		c0,141.385,114.613,255.998,255.998,255.998c43.962,0,85.333-11.096,121.483-30.618C230.893,507.592,69.808,451.116,44.109,298.381
		z"/>
</g>
<path style="fill:#AF143C;" d="M394.621,224.169c-13.368-62.19-35.585-61.078-49.859-52.194
	c-7.175,4.46-12.482,11.314-16.221,18.892c-9.106,18.485-26.253,24.587-40.551,26.225c-2.746-14.88-2.477-36.158,15.545-50.919
	c6.597-5.402,12.157-12.106,14.919-20.179c5.43-15.897,1.476-37.745-62.055-36.859c-63.567-2.378-67.964,19.431-62.879,35.454
	c2.556,8.053,7.887,14.888,14.314,20.373c17.226,14.713,17.559,35.149,14.745,49.879c-14.286-1.266-31.473-6.902-41.066-24.939
	c-4.005-7.531-9.482-14.298-16.858-18.588c-14.52-8.445-36.72-8.861-48.327,53.606c-14.808,61.866,5.707,70.457,22.418,68.617
	c8.401-0.922,16.146-4.812,22.79-10.036c16.783-13.194,35.604-10.669,49.348-5.608c-8.987,9.98-22.292,18.904-40.579,17.171
	c-8.493-0.803-17.159,0.044-24.805,3.839c-15.046,7.468-27.618,25.77,18.137,69.855c43.48,46.428,61.953,34.037,69.622,19.071
	c3.854-7.519,4.872-16.126,4.171-24.548c-1.448-17.401,6.644-30.135,16.087-38.964c9.794,8.983,18.418,22.141,16.716,40.147
	c-0.807,8.492,0.04,17.163,3.835,24.805c7.471,15.046,25.774,27.618,69.855-18.137c46.428-43.48,34.037-61.953,19.074-69.618
	c-7.519-3.854-16.13-4.872-24.548-4.175c-17.67,1.472-30.531-6.886-39.364-16.518c13.724-6.039,33.709-10.309,51.873,3.087
	c6.866,5.061,14.733,8.801,23.234,9.482C390.94,294.737,411.143,285.516,394.621,224.169z"/>
<path style="fill:#CC1F3C;" d="M382.23,228.546c-8.58-45.351-23.705-44.734-35.735-38.925c-6.043,2.921-11.302,14.314-14.812,19.13
	c-7.535,10.352-28.406,17.947-42.601,20.986c-3.91-4.927-8.892-8.94-14.595-11.734l1.496-0.079
	c-1.084-11.662-1.801-41.394,8.172-52.107c4.076-4.377,12.517-13.91,16.328-19.498c9.878-14.492-6.197-27.44-45.45-26.724
	c-46.143-1.175-48.727,13.74-45.585,26.724c1.575,6.526,11.607,14.068,15.576,18.517c10.25,11.476,12.553,40.903,11.156,53.737
	c-5.39,2.849-10.068,6.842-13.768,11.635c-14.124-2.644-37.017-10.503-44.991-21.461c-3.51-4.816-8.766-16.209-14.812-19.13
	c-12.03-5.809-27.155-6.427-35.735,38.925c-8.979,38.22,0.289,56.666,16.542,50.065c6.265-2.549,17.361-8.789,22.502-11.848
	c11.591-6.906,37.021-1.535,49.693,2.109c1.448,4.535,3.668,8.718,6.458,12.45c-10.024,10.499-27.053,24.033-39.641,25.086
	c-5.94,0.499-18.406-0.922-24.041,2.727c-11.211,7.266-19.593,19.87,14.71,50.753c28.002,27.516,48.581,29.174,51.375,11.856
	c1.076-6.676,1.504-19.395,1.559-25.383c0.115-13.574,18.137-32.676,27.785-41.54c9.597,9.375,26.225,28.192,26.036,41.402
	c-0.083,5.988,0.047,18.714,0.974,25.41c2.394,17.381,23.004,16.194,51.632-10.673c35.007-30.084,26.918-42.878,15.877-50.397
	c-5.548-3.779-18.046-2.647-23.974-3.281c-11.575-1.239-26.665-13.15-36.625-23.412c3.973-4.531,7.005-9.893,8.762-15.818
	c13.344-3.542,35.961-7.681,46.701-1.286c5.145,3.059,16.241,9.304,22.502,11.848C381.941,285.211,391.205,266.766,382.23,228.546z
	 M251.32,298.065c1.132,0.119,2.283,0.17,3.439,0.202l-1.662,1.67L251.32,298.065z"/>
</svg>